:SAMPLES-PER-SECOND 30
:FULLY-SPECIFIED
:DEGREES
615
root  3.1351 34.3191 -13.4573 -176.086 55.2875 179.39
LeftUpLeg  -10.7168 6.78432 2.65587
LeftLeg  12.789 -1.17835 -0.190362
LeftFoot  3.56279 0.00348779 -0.0177597
LeftToes  -19.4109 7.65994e-007 1.12379e-007
Spine  3.17938 3.2417 -0.547121
Spine1  6.16053 6.88497 -1.30485
RightShoulder  0.0426872 1.33813 -11.0684
RightArm  8.44728 22.0807 95.9664
RightForeArm  135.627 48.9685 167.987
RightHand  2.2378 -12.7703 -19.4207
LeftShoulder1  -0.0313636 -2.14545 -2.72967
LeftArm  -11.5227 21.2125 -73.7024
LeftForeArm  26.0608 -36.8749 -7.59907
LeftHand  0.187605 3.38685 6.11346
HEad  11.5771 -3.39659 -1.26443
RightUpLeg  -9.85605 -11.2755 1.06099
RightLeg  9.54683 -1.67672 -0.170658
RightFoot  2.34504 0.00852747 -0.0165296
RightToes  -23.854 -0.103969 -0.207064
616
root  3.04 34.3315 -13.5526 -176.196 55.7261 179.427
LeftUpLeg  -10.3883 6.9425 2.4769
LeftLeg  12.4551 -0.931081 -0.145132
LeftFoot  3.60053 0.00209492 -0.000337764
LeftToes  -19.2877 7.65994e-007 1.12379e-007
Spine  3.11863 3.16109 -0.60569
Spine1  6.0187 6.74855 -1.44971
RightShoulder  0.0453903 1.3834 -10.9526
RightArm  8.33601 21.6245 95.5221
RightForeArm  136.301 48.4262 168.211
RightHand  2.29858 -12.353 -20.6239
LeftShoulder1  -0.0314303 -2.12617 -2.77691
LeftArm  -11.4384 21.0922 -73.4932
LeftForeArm  26.0152 -36.6986 -7.55004
LeftHand  0.187489 3.38857 6.03462
HEad  12.1246 -5.00806 -0.721984
RightUpLeg  -9.82774 -11.0136 0.830522
RightLeg  9.6158 -1.50788 -0.155179
RightFoot  2.57043 0.0093345 -0.0121514
RightToes  -24.1963 -0.106066 -0.209676
617
root  2.95503 34.3396 -13.6475 -176.263 56.1494 179.481
LeftUpLeg  -10.1601 7.21549 2.30942
LeftLeg  12.2812 -0.805706 -0.123262
LeftFoot  3.51585 0.00126955 0.00979908
LeftToes  -18.7991 7.65994e-007 1.12379e-007
Spine  3.07831 3.04569 -0.661953
Spine1  5.92154 6.53432 -1.58369
RightShoulder  0.047923 1.41765 -10.9061
RightArm  8.22512 21.2098 95.1612
RightForeArm  137.248 47.9264 168.411
RightHand  2.35245 -11.9285 -21.8554
LeftShoulder1  -0.0314605 -2.22954 -2.71887
LeftArm  -11.4358 21.0666 -73.3182
LeftForeArm  25.9844 -36.455 -7.48262
LeftHand  0.190058 3.35652 6.05559
HEad  12.6541 -6.66571 -0.211764
RightUpLeg  -9.79799 -10.9685 0.630873
RightLeg  9.64608 -1.11769 -0.115276
RightFoot  2.80301 0.00954777 0.00310647
RightToes  -24.6238 -0.109066 -0.213269
618
root  2.87437 34.3474 -13.7412 -176.402 56.6908 179.474
LeftUpLeg  -9.8276 7.44741 2.12525
LeftLeg  11.9832 -0.532225 -0.0790438
LeftFoot  3.4788 7.36695e-006 0.0287211
LeftToes  -18.5772 7.65994e-007 1.12379e-007
Spine  3.02559 2.95117 -0.736773
Spine1  5.79433 6.36806 -1.75887
RightShoulder  0.0499164 1.47028 -10.9279
RightArm  8.00461 20.68 94.9306
RightForeArm  138.166 47.4905 168.582
RightHand  2.35831 -11.4695 -22.7829
LeftShoulder1  -0.0314529 -2.26052 -2.62615
LeftArm  -11.3953 21.0776 -73.1436
LeftForeArm  26.0345 -36.1008 -7.38534
LeftHand  0.191258 3.42294 6.01218
HEad  13.2647 -8.13405 0.201551
RightUpLeg  -9.72632 -10.8525 0.406272
RightLeg  9.62762 -0.713382 -0.0728482
RightFoot  2.98039 0.00954253 0.023675
RightToes  -25.1957 -0.112441 -0.217228
619
root  2.79488 34.3576 -13.8291 -176.482 57.3204 179.516
LeftUpLeg  -9.54117 7.59846 1.97803
LeftLeg  11.757 -0.0866679 -0.013658
LeftFoot  3.43444 -0.00171826 0.0573043
LeftToes  -18.3673 7.65994e-007 1.12379e-007
Spine  2.97131 2.86682 -0.807109
Spine1  5.66688 6.21746 -1.91925
RightShoulder  0.0516916 1.45222 -10.8941
RightArm  8.02804 20.2345 94.8539
RightForeArm  138.873 47.1272 168.723
RightHand  2.37619 -11.0958 -23.7213
LeftShoulder1  -0.0314061 -2.31623 -2.56412
LeftArm  -11.4638 21.131 -72.9326
LeftForeArm  26.189 -35.678 -7.2704
LeftHand  0.19357 3.51694 5.91711
HEad  13.6929 -9.37881 0.476754
RightUpLeg  -9.67648 -10.6218 0.222502
RightLeg  9.5786 -0.382435 -0.0380765
RightFoot  3.22488 0.00984213 0.0416865
RightToes  -25.7412 -0.115721 -0.221304
620
root  2.71728 34.3649 -13.9164 -176.535 57.9889 179.584
LeftUpLeg  -9.35242 7.88849 1.84596
LeftLeg  11.724 0.255372 0.0347244
LeftFoot  3.31332 -0.00284508 0.0784984
LeftToes  -18.0095 7.65994e-007 1.12379e-007
Spine  2.94102 2.77941 -0.86378
Spine1  5.58859 6.05949 -2.05186
RightShoulder  0.0532647 1.44742 -10.7592
RightArm  7.995 19.9154 94.5893
RightForeArm  139.199 46.8173 168.842
RightHand  2.34228 -10.7679 -24.0931
LeftShoulder1  -0.0313186 -2.35162 -2.51598
LeftArm  -11.5928 21.1641 -72.745
LeftForeArm  26.3221 -35.1896 -7.13918
LeftHand  0.199253 3.64356 5.87712
HEad  13.9603 -10.6272 0.811283
RightUpLeg  -9.6698 -10.5713 0.0592598
RightLeg  9.59569 0.231885 0.025403
RightFoot  3.46268 0.00899573 0.0799248
RightToes  -26.2008 -0.118653 -0.224342
621
root  2.6419 34.3682 -14.0035 -176.569 58.6925 179.645
LeftUpLeg  -9.17152 8.23179 1.70495
LeftLeg  11.6661 0.597776 0.0824932
LeftFoot  3.18027 -0.00377707 0.0976393
LeftToes  -17.6949 7.65994e-007 1.12379e-007
Spine  2.90747 2.70382 -0.911351
Spine1  5.50623 5.92188 -2.16238
RightShoulder  0.0547676 1.43744 -10.6254
RightArm  7.95189 19.677 94.2701
RightForeArm  139.899 46.5079 168.959
RightHand  2.32973 -10.4402 -24.71
LeftShoulder1  -0.0311893 -2.35646 -2.50202
LeftArm  -11.7052 21.1496 -72.5644
LeftForeArm  26.3948 -34.5807 -6.97787
LeftHand  0.205346 3.7568 5.87431
HEad  14.2444 -12.1062 1.0764
RightUpLeg  -9.70963 -10.6404 -0.0928798
RightLeg  9.64317 0.998838 0.10565
RightFoot  3.67549 0.00785781 0.132623
RightToes  -26.5423 -0.121071 -0.227231
